<svg id="Layer_1" data-name="Layer 1" xmlns="http://www.w3.org/2000/svg" viewBox="0 0 253.87 284.81"><defs><style>.cls-1{font-size:37px;font-family:Roboto-Light, Roboto;font-weight:300;}.cls-1,.cls-5{fill:#1baacc;}.cls-2{letter-spacing:-0.01em;}.cls-3,.cls-6{fill:#008aaa;}.cls-3{font-family:Roboto-Bold, Roboto;font-weight:700;}.cls-4{fill:#9cdaed;}</style></defs><text class="cls-1" transform="translate(31.11 281.2)"><tspan class="cls-2">T</tspan><tspan x="21.59" y="0">OUR</tspan><tspan class="cls-3" x="94.43" y="0">SYNC</tspan></text><text/><path class="cls-4" d="M160.9,122.91l88.52-5a122.31,122.31,0,0,0-2.27-17.57l-86.79,18.08A31.79,31.79,0,0,1,160.9,122.91Z"/><path class="cls-4" d="M159.35,114.37l84.12-27.73a124.89,124.89,0,0,0-6.76-16.37l-79,39.87A33.25,33.25,0,0,1,159.35,114.37Z"/><path class="cls-4" d="M155.63,106.48l74-48.49a123,123,0,0,0-10.76-14.08l-66,58.9A33.48,33.48,0,0,1,155.63,106.48Z"/><path class="cls-4" d="M150,99.78l58.89-65.95a123.11,123.11,0,0,0-14-10.87l-48.47,74A35.45,35.45,0,0,1,150,99.78Z"/><path class="cls-4" d="M142.79,94.75,182.6,15.81a121.79,121.79,0,0,0-16.37-6.9l-27.67,84A33.85,33.85,0,0,1,142.79,94.75Z"/><path class="cls-4" d="M134.48,91.74l18-86.59a123.07,123.07,0,0,0-17.62-2.39L134.53,9l-4.64,82.07A32.74,32.74,0,0,1,134.48,91.74Z"/><path class="cls-4" d="M125.64,91l-5-88.34A122.39,122.39,0,0,0,103,4.86l18,86.69A33.51,33.51,0,0,1,125.64,91Z"/><path class="cls-4" d="M116.88,92.6,89.16,8.48a122.92,122.92,0,0,0-16.52,6.73l39.9,79.13A33.3,33.3,0,0,1,116.88,92.6Z"/><path class="cls-4" d="M108.83,96.46,60.24,22.31A121.67,121.67,0,0,0,46,33.12L105.1,99.29A35.5,35.5,0,0,1,108.83,96.46Z"/><path class="cls-4" d="M102.07,102.31,35.84,43.17a123.4,123.4,0,0,0-11,14.15L99.21,106A32.12,32.12,0,0,1,102.07,102.31Z"/><path class="cls-4" d="M97.07,109.73l-79.39-40a122.51,122.51,0,0,0-6.92,16.52l84.53,27.86A33.76,33.76,0,0,1,97.07,109.73Z"/><path class="cls-4" d="M94.21,118.2,7,100.05a122.13,122.13,0,0,0-2.34,17.77l89,5A34,34,0,0,1,94.21,118.2Z"/><path class="cls-4" d="M168.46,151.89l-13.15-8.61a33,33,0,0,1-2.75,3.58l.61.53C158.51,149,163.6,150.54,168.46,151.89Z"/><path class="cls-4" d="M217.55,154.78l-58.42-19.24a33.65,33.65,0,0,1-1.74,4.15l34.8,17.55C202.7,158.76,211.23,158.31,217.55,154.78Z"/><path class="cls-4" d="M230,131l-69.19-3.91a33.3,33.3,0,0,1-.62,4.48l66.06,13.75A43.06,43.06,0,0,0,230,131Z"/><path class="cls-4" d="M94.23,131.07a34.12,34.12,0,0,1-.54-3.95l-89,5a121.05,121.05,0,0,0,1.87,15.47C21.35,138.54,52.13,124.57,94.23,131.07Z"/><path class="cls-5" d="M2,160.91c46.4-34.08,98.41,5.22,129.42,24.69s45,10.59,45,10.59c-20.34-8.58-61.08-49.71-106.62-57.93S2,160.91,2,160.91Z"/><path class="cls-5" d="M179.9,174C154,163.94,106.76,128.61,80,136.1a181.48,181.48,0,0,1,53.37,25.23c23.26,16.4,38,28.75,58.22,34.8,23.76,7.11,32.65-14.39,32.65-14.39S205.78,184,179.9,174ZM199,192.23c-12.16-1.92-29-17.12-29-17.12s29.72,12.9,44.44,11.49C214.44,186.6,211.15,194.16,199,192.23Z"/><path class="cls-5" d="M234.46,128.32s2,15.28-8.1,26.77-35.33,16-86.92-7.24c0,0,32.89,21.29,54.43,26.43,22.1,5.26,49,2,55.25-18.89S240.61,125,234.46,128.32Zm10.45,19.29c-1,10.32-13.39,20.71-31.69,20.29,0,0,26.8-8.81,26.38-33.06C239.6,134.84,246,137.26,244.91,147.61Z"/><path class="cls-6" d="M85.83,39.84l12.86,6.38s8.54-3,19.32-6.38L94,21.7l7.58-1.22,35.85,13.73c7.27-1.89,14-3.32,18.44-3.57,15.34-.84,10.57,4.79,6.87,5.66s-13.06,3.5-69.87,18l-13-12.73Z"/><polygon class="cls-6" points="144.18 43.45 126.06 48.08 130.58 53.47 137.1 52.25 144.18 43.45"/><path class="cls-6" d="M92.94,52.22S38.94,69.4,47,132c1.26-.24,2.78-.53,4.56-.84-1.72-10.25-7-58.59,42.54-77.39Z"/><path class="cls-6" d="M132.34,217.56c-35.7-11-65-49.31-111-28.78a123.62,123.62,0,0,0,216.42-8.49c-1.85.74-5.11,1.61-5.93,1.89-13.75,27.89-34.19,24.86-43.53,21.51-1.71-.58-3-1.14-3.9-1.53-12.46,5.39-23.74,5.14-35,1.36-19.35-6.49-39.2-22.6-70-38.22A91,91,0,0,0,66.79,160c-27.68-9.19-47.83.3-56.32,5.67a122,122,0,0,0,7.43,17C31.58,177.15,57.45,172,89.54,191c48.11,28.54,72.24,36.33,115.47,24.07C205,215.05,170.67,229.38,132.34,217.56Z"/></svg>